<?xml version="1.0" encoding="UTF-8"?>
<svg id="Layer_1" data-name="Layer 1" xmlns="http://www.w3.org/2000/svg" version="1.1" viewBox="0 0 16 16">
  <defs>
    <style>
      .cls-1 {
        fill: #2e5f3e;
      }

      .cls-1, .cls-2 {
        stroke-width: 0px;
      }

      .cls-2 {
        fill: #eaad38;
      }
    </style>
  </defs>
  <g>
    <path class="cls-1" d="M7.98,15.72c-.07,0-.14,0-.21,0-.29,0-.58-.03-.86-.07l-.29-1.61c-.46-.1-.9-.25-1.32-.44l-1.29,1.06h0c-.69-.4-1.31-.9-1.85-1.48l.83-1.42c-.28-.36-.52-.75-.72-1.17H.59c-.26-.73-.42-1.51-.45-2.32h3.79s0,.07,0,.11c.18,1.96,1.8,3.5,3.82,3.61.07,0,.15,0,.22,0,.1,0,.21,0,.31-.01,2.01-.15,3.61-1.73,3.74-3.7h.33s3.47-.01,3.47-.01c-.02.73-.15,1.44-.37,2.11h-1.67c-.18.43-.41.83-.68,1.2l.85,1.43c-.52.59-1.12,1.11-1.8,1.53l-1.28-1.05c-.41.21-.84.37-1.3.49l-.29,1.63c-.32.05-.65.09-.99.1-.11,0-.21,0-.32,0Z"/>
    <path class="cls-1" d="M7.76,11.42c-1.68-.11-3.04-1.39-3.23-3.01,0-.04,0-.09-.01-.13h.47c0,.05,0,.1.02.15.19,1.36,1.34,2.43,2.75,2.53v.45s0,0,0,0Z"/>
    <path class="cls-1" d="M8.29,11.41h0s0-.46,0-.46c1.41-.14,2.54-1.24,2.69-2.63,0-.02,0-.04,0-.05h.47s0,.02,0,.04c-.14,1.65-1.48,2.96-3.16,3.11Z"/>
  </g>
  <g>
    <path class="cls-2" d="M7.1,1.88l-.33-1.5c.32-.05.65-.08.99-.09.09,0,.17,0,.26,0,.09,0,.18,0,.27,0,.32.01.63.04.93.09l-.33,1.5-.47,2.14v.06c-.15-.01-.29-.02-.43-.02s-.27,0-.4.02v-.05s-.48-2.14-.48-2.14Z"/>
    <path class="cls-2" d="M5.02,2.56l-.84-1.3c.71-.39,1.48-.67,2.3-.83l.21,1.52.3,2.17v.05c-.26.07-.53.16-.77.28l-.02-.03-1.19-1.85Z"/>
    <path class="cls-2" d="M9.29,1.95l.21-1.52c.82.15,1.59.43,2.3.82l-.84,1.3-1.19,1.85-.03.05c-.24-.11-.5-.21-.76-.27v-.06s.31-2.17.31-2.17Z"/>
    <path class="cls-2" d="M11.33,2.74l.73-1.36c.7.41,1.33.93,1.87,1.54l-1.24.94-1.77,1.34-.05.04c-.19-.19-.39-.36-.62-.5l.03-.06,1.04-1.94Z"/>
    <path class="cls-2" d="M3.3,3.91l-1.24-.94c.54-.61,1.17-1.14,1.87-1.56l.73,1.36,1.04,1.94v.03c-.22.15-.43.33-.63.53h-.02s-1.76-1.35-1.76-1.35Z"/>
    <path class="cls-2" d="M12.95,4.17l1.16-1.03c.51.62.92,1.31,1.22,2.07l-1.49.47-2.13.67-.05.02c-.11-.24-.25-.46-.41-.68l.05-.04,1.65-1.47Z"/>
    <path class="cls-2" d="M2.16,5.75l-1.49-.47c.29-.76.7-1.47,1.21-2.1l1.16,1.03,1.66,1.47h0c-.16.23-.31.47-.42.73h0s-2.13-.67-2.13-.67Z"/>
    <path class="cls-2" d="M15.86,7.72h-3.84c-.02-.28-.07-.55-.15-.82l.05-.02,2.07-.83,1.45-.58c.25.71.4,1.46.42,2.24Z"/>
    <path class="cls-2" d="M4.09,6.96c-.07.24-.12.5-.14.76H.17c.03-.76.16-1.49.4-2.17l1.45.58,2.07.83Z"/>
    <path class="cls-2" d="M10.98,7.69s0,.04,0,.05h.47s0-.02,0-.04c-.14-1.65-1.48-2.96-3.16-3.11h0s0,.46,0,.46c1.41.14,2.54,1.24,2.69,2.63Z"/>
    <path class="cls-2" d="M7.76,4.6c-1.68.11-3.04,1.39-3.23,3.01,0,.04,0,.09-.01.13h.47c0-.05,0-.1.02-.15.19-1.36,1.34-2.43,2.75-2.53v-.45s0,0,0,0Z"/>
  </g>
</svg>