<?xml version="1.0" encoding="UTF-8" standalone="no"?>
<svg
   id="Layer_1"
   data-name="Layer 1"
   version="1.1"
   viewBox="0 0 150 150"
   sodipodi:docname="eco-libre_text-logo-2025.08.svg"
   width="150"
   height="150"
   inkscape:version="1.2.2 (b0a8486541, 2022-12-01)"
   inkscape:export-filename="eco-libre_text-logo-2025.08_1600.jpg"
   inkscape:export-xdpi="1024"
   inkscape:export-ydpi="1024"
   xmlns:inkscape="http://www.inkscape.org/namespaces/inkscape"
   xmlns:sodipodi="http://sodipodi.sourceforge.net/DTD/sodipodi-0.dtd"
   xmlns="http://www.w3.org/2000/svg"
   xmlns:svg="http://www.w3.org/2000/svg">
  <sodipodi:namedview
     id="namedview61"
     pagecolor="#ffffff"
     bordercolor="#666666"
     borderopacity="1.0"
     inkscape:showpageshadow="2"
     inkscape:pageopacity="0.0"
     inkscape:pagecheckerboard="0"
     inkscape:deskcolor="#d1d1d1"
     showgrid="false"
     inkscape:zoom="3.688269"
     inkscape:cx="-36.873666"
     inkscape:cy="112.79004"
     inkscape:window-width="1444"
     inkscape:window-height="1141"
     inkscape:window-x="472"
     inkscape:window-y="55"
     inkscape:window-maximized="1"
     inkscape:current-layer="Layer_1" />
  <defs
     id="defs4">
    <style
       id="style2">
      .cls-1 {
        fill: #2e5f3e;
      }

      .cls-1, .cls-2 {
        stroke-width: 0px;
      }

      .cls-2 {
        fill: #eaad38;
      }
    </style>
  </defs>
  <g
     id="g38"
     transform="translate(22.415,-12.727688)">
    <g
       id="g12">
      <path
         class="cls-1"
         d="m 52.49,124.77 c -0.46,0 -0.92,0 -1.37,-0.02 -1.88,-0.05 -3.73,-0.2 -5.56,-0.44 l -1.9,-10.37 c -2.97,-0.65 -5.82,-1.61 -8.5,-2.86 l -8.3,6.87 v 0 c -4.45,-2.57 -8.47,-5.78 -11.91,-9.52 L 20.3,99.29 C 18.48,96.96 16.92,94.44 15.66,91.74 L 4.79,91.77 C 3.08,87.06 2.08,82.02 1.9,76.77 h 24.46 c 0.01,0.24 0.03,0.48 0.06,0.71 1.17,12.61 11.64,22.59 24.63,23.28 0.48,0.02 0.96,0.04 1.44,0.04 0.67,0 1.33,-0.02 1.98,-0.07 12.95,-0.95 23.28,-11.15 24.14,-23.88 l 2.11,-0.08 h 22.36 c -0.15,4.73 -0.98,9.28 -2.4,13.59 l -10.75,0.03 c -1.16,2.74 -2.63,5.32 -4.36,7.71 l 5.46,9.21 c -3.33,3.84 -7.25,7.17 -11.62,9.86 l -8.25,-6.75 c -2.64,1.34 -5.45,2.41 -8.39,3.17 l -1.85,10.5 c -2.09,0.34 -4.21,0.56 -6.38,0.65 -0.68,0.03 -1.37,0.04 -2.05,0.04 z"
         id="path6" />
      <path
         class="cls-1"
         d="M 51.03,97.06 C 40.17,96.38 31.42,88.12 30.2,77.62 30.16,77.33 30.14,77.05 30.12,76.76 h 3.04 c 0.03,0.33 0.06,0.65 0.11,0.98 1.24,8.8 8.61,15.67 17.75,16.34 v 2.93 c 0,0 0,0.05 0,0.05 z"
         id="path8" />
      <path
         class="cls-1"
         d="m 54.46,97.02 v -2.98 c 9.11,-0.9 16.37,-8 17.32,-16.94 0.01,-0.11 0.02,-0.23 0.03,-0.34 h 3.04 c 0,0.08 -0.01,0.15 -0.02,0.23 -0.91,10.63 -9.54,19.11 -20.37,20.03 z"
         id="path10" />
    </g>
    <g
       id="g36">
      <path
         class="cls-2"
         d="m 46.77,35.55 -2.14,-9.69 c 2.09,-0.33 4.22,-0.53 6.38,-0.6 0.55,-0.02 1.11,-0.03 1.66,-0.03 0.59,0 1.18,0.01 1.76,0.03 2.04,0.06 4.04,0.25 6.01,0.55 l -2.14,9.69 -3.06,13.82 -0.08,0.36 c -0.88,-0.09 -1.78,-0.13 -2.69,-0.13 -0.91,0 -1.74,0.04 -2.59,0.12 L 49.81,49.35 46.76,35.54 Z"
         id="path14" />
      <path
         class="cls-2"
         d="m 33.33,39.94 -5.39,-8.39 c 4.56,-2.51 9.57,-4.35 14.87,-5.38 l 1.37,9.83 1.95,14.01 0.04,0.29 c -1.75,0.43 -3.43,1.03 -5.02,1.78 l -0.13,-0.2 -7.68,-11.95 z"
         id="path16" />
      <path
         class="cls-2"
         d="m 60.92,35.95 1.37,-9.82 c 5.29,0.99 10.28,2.79 14.85,5.27 l -5.39,8.38 -7.69,11.96 -0.22,0.34 c -1.56,-0.74 -3.2,-1.33 -4.91,-1.75 l 0.05,-0.38 1.95,-14 z"
         id="path18" />
      <path
         class="cls-2"
         d="m 74.03,41.09 4.71,-8.77 c 4.53,2.68 8.61,6.03 12.07,9.92 l -7.99,6.07 -11.4,8.66 -0.32,0.25 c -1.21,-1.21 -2.54,-2.3 -3.98,-3.26 l 0.19,-0.36 6.72,-12.5 z"
         id="path20" />
      <path
         class="cls-2"
         d="m 22.25,48.61 -7.99,-6.07 c 3.45,-3.95 7.53,-7.35 12.08,-10.07 l 4.71,8.77 6.72,12.52 0.09,0.17 c -1.49,0.99 -2.88,2.13 -4.13,3.4 L 33.63,57.25 22.25,48.6 Z"
         id="path22" />
      <path
         class="cls-2"
         d="m 84.54,50.3 7.48,-6.66 c 3.29,3.98 5.97,8.46 7.88,13.32 l -9.63,3.03 -13.73,4.31 -0.35,0.11 c -0.73,-1.54 -1.6,-3 -2.62,-4.35 l 0.29,-0.26 10.67,-9.5 z"
         id="path24" />
      <path
         class="cls-2"
         d="M 14.88,60.48 5.26,57.45 C 7.14,52.53 9.8,47.97 13.09,43.93 l 7.49,6.66 10.68,9.51 0.06,0.05 c -1.06,1.44 -1.98,2.99 -2.71,4.62 v 0 c 0,0 -13.71,-4.31 -13.71,-4.31 z"
         id="path26" />
      <path
         class="cls-2"
         d="M 103.27,73.17 H 78.52 C 78.38,71.36 78.04,69.6 77.54,67.91 l 0.31,-0.12 13.34,-5.35 9.36,-3.75 c 1.6,4.56 2.55,9.42 2.72,14.48 z"
         id="path28" />
      <path
         class="cls-2"
         d="m 27.33,68.26 c -0.45,1.58 -0.75,3.22 -0.88,4.91 H 2.09 c 0.17,-4.88 1.06,-9.58 2.56,-14 l 9.36,3.75 13.33,5.34 z"
         id="path30" />
      <path
         class="cls-2"
         d="m 71.78,73.03 c 0.01,0.11 0.02,0.23 0.03,0.34 h 3.04 c 0,-0.08 -0.01,-0.15 -0.02,-0.23 C 73.92,62.51 65.29,54.03 54.46,53.11 v 0.05 c 0,0 0,2.93 0,2.93 9.12,0.9 16.38,8 17.33,16.94 z"
         id="path32" />
      <path
         class="cls-2"
         d="m 51.03,53.08 c -10.86,0.68 -19.61,8.94 -20.83,19.44 -0.04,0.29 -0.06,0.57 -0.08,0.86 h 3.04 c 0.03,-0.33 0.06,-0.65 0.11,-0.98 1.24,-8.8 8.61,-15.67 17.75,-16.34 v -2.93 c 0,0 0,-0.05 0,-0.05 z"
         id="path34" />
    </g>
  </g>
  <text
     xml:space="preserve"
     style="font-style:normal;font-variant:normal;font-weight:normal;font-stretch:normal;font-size:24.5249px;line-height:1.25;font-family:'Liberation Sans Narrow';-inkscape-font-specification:'Liberation Sans Narrow, Normal';font-variant-ligatures:normal;font-variant-caps:normal;font-variant-numeric:normal;font-variant-east-asian:normal;fill:#000000;fill-opacity:1;stroke:none;stroke-width:0.613128"
     x="22.798767"
     y="137.31375"
     id="text398"><tspan
       sodipodi:role="line"
       id="tspan396"
       x="22.798767"
       y="137.31375"
       style="font-style:normal;font-variant:normal;font-weight:bold;font-stretch:normal;font-size:24.5249px;font-family:Lato;-inkscape-font-specification:'Lato, Bold';font-variant-ligatures:normal;font-variant-caps:normal;font-variant-numeric:normal;font-variant-east-asian:normal;fill:#2e5f30;fill-opacity:1;stroke:none;stroke-width:0.613128;stroke-opacity:1">Eco-Libre</tspan></text>
</svg>
